<?xml version="1.0" standalone="no"?><!DOCTYPE svg PUBLIC "-//W3C//DTD SVG 1.1//EN" "http://www.w3.org/Graphics/SVG/1.1/DTD/svg11.dtd"><svg t="1561814156825" class="icon" viewBox="0 0 1024 1024" version="1.1" xmlns="http://www.w3.org/2000/svg" p-id="9616" xmlns:xlink="http://www.w3.org/1999/xlink" width="64" height="64"><defs><style type="text/css"></style></defs><path d="M512 1024C229.23 1024 0 794.77 0 512S229.23 0 512 0s512 229.23 512 512-229.23 512-512 512zM408.35 701.697c-8.516 0-16.394 1.564-23.633 4.69-7.24 3.126-13.52 7.48-18.843 13.063-5.323 5.582-9.582 12.17-12.776 19.762-3.193 7.592-4.79 15.63-4.79 24.116 0 8.485 1.597 16.524 4.79 24.116 3.194 7.592 7.453 14.18 12.776 19.762 5.323 5.583 11.604 10.049 18.843 13.398 7.239 3.35 15.117 5.024 23.634 5.024 8.09 0 15.756-1.674 22.995-5.024 7.24-3.35 13.52-7.815 18.843-13.398 5.323-5.582 9.581-12.17 12.775-19.762 3.194-7.592 4.79-15.63 4.79-24.116 0-8.485-1.596-16.524-4.79-24.116-3.194-7.593-7.452-14.18-12.775-19.762-5.323-5.583-11.604-9.937-18.843-13.063-7.24-3.126-14.904-4.69-22.995-4.69z m265.722 1.34c-8.09 0-15.755 1.563-22.995 4.69-7.239 3.126-13.52 7.48-18.843 13.062-5.323 5.583-9.581 12.17-12.775 19.762-3.194 7.593-4.79 15.631-4.79 24.117 0 8.485 1.596 16.524 4.79 24.116 3.194 7.592 7.452 14.18 12.775 19.762 5.323 5.582 11.604 10.048 18.843 13.398 7.24 3.35 14.905 5.024 22.995 5.024 8.091 0 15.863-1.675 23.315-5.024 7.452-3.35 13.84-7.816 19.163-13.398s9.58-12.17 12.775-19.762c3.193-7.592 4.79-15.63 4.79-24.116 0-8.486-1.597-16.524-4.79-24.117-3.194-7.592-7.452-14.179-12.775-19.762-5.323-5.582-11.71-9.936-19.163-13.062-7.452-3.127-15.224-4.69-23.315-4.69z m107.311-380.501H344.475a1660.127 1660.127 0 0 0-3.832-25.456 4622.297 4622.297 0 0 0-2.555-19.762c-0.852-6.476-1.704-11.5-2.555-15.073a959.049 959.049 0 0 0-3.194-11.388c-1.278-4.466-3.407-8.709-6.388-12.728-2.98-4.02-7.026-7.369-12.136-10.049-5.11-2.68-11.923-4.019-20.44-4.019h-64.514c-9.794 0-17.566 2.903-23.315 8.709-5.749 5.805-8.623 13.174-8.623 22.106 0 4.466 0.532 9.379 1.597 14.738a47.738 47.738 0 0 0 5.749 15.073 43.039 43.039 0 0 0 10.54 12.058c4.258 3.35 9.58 5.024 15.968 5.024h47.907c10.22 55.378 19.375 105.62 27.466 150.727a28765.69 28765.69 0 0 0 10.22 57.276c3.407 18.98 6.494 36.174 9.262 51.582a6038.67 6038.67 0 0 0 7.026 38.52c1.917 10.27 3.088 16.747 3.513 19.426 1.278 6.7 3.088 13.845 5.43 21.437 2.342 7.592 5.43 14.626 9.262 21.102 3.832 6.475 8.623 11.723 14.372 15.742 5.749 4.02 12.881 6.03 21.398 6.03H721.34c11.924 0 19.908-3.239 23.954-9.714 4.045-6.476 6.068-14.18 6.068-23.112 0-18.31-10.22-27.465-30.66-27.465H398.13l-8.943-60.291h335.346c12.35 0 22.676-3.461 30.98-10.384 8.303-6.922 15.223-19.315 20.76-37.179 2.98-8.485 6.919-20.097 11.816-34.835a10487.36 10487.36 0 0 0 14.691-44.548 3673.793 3673.793 0 0 1 13.734-41.198c4.258-12.505 7.026-20.767 8.303-24.786 1.278-4.02 2.023-8.82 2.236-14.403 0.213-5.583-1.064-10.83-3.832-15.743-2.768-4.912-7.453-9.043-14.053-12.393-6.6-3.35-15.862-5.024-27.786-5.024z m-47.906-21.437l-84.955-89.096c-9.794-10.272-20.546-15.296-32.257-15.073-11.71 0.224-22.463 5.471-32.257 15.743l-84.315 88.426h233.784z" p-id="9617" fill="#1296db"></path></svg>