<?xml version="1.0" standalone="no"?><!DOCTYPE svg PUBLIC "-//W3C//DTD SVG 1.1//EN" "http://www.w3.org/Graphics/SVG/1.1/DTD/svg11.dtd"><svg t="1561815207478" class="icon" viewBox="0 0 1024 1024" version="1.1" xmlns="http://www.w3.org/2000/svg" p-id="27761" xmlns:xlink="http://www.w3.org/1999/xlink" width="64" height="64"><defs><style type="text/css"></style></defs><path d="M608.148827 507.48415c-37.512359 0-80.83812 31.455409-122.744555 61.871139-41.317011 29.996175-80.34284 58.323337-116.793006 58.323337-31.241538 0-54.092989-6.39771-73.05383-18.969027l-0.002047 68.536956c0 8.277524 7.081279 14.986319 15.818268 14.986319l382.578372 0.101307h15.944133c8.53335 0 15.739473-4.321422 15.739473-12.596899V559.975664c-0.531096-0.565888-50.250474-52.491515-117.486808-52.491514zM416.70461 429.268764c-17.228383 0-31.196513 15.163351-31.196512 31.343869 0 16.179494 13.967106 31.342846 31.196512 31.342845 17.229406 0 31.196513-15.163351 31.196513-31.342845 0-16.180518-13.96506-31.343869-31.196513-31.343869z m296.283984-84.039022l-401.612891-0.107447c-8.736988 0-15.818267 6.710842-15.818267 14.986319l0.002047 195.736987c10.536984 9.69378 37.116339 39.548738 73.054852 39.548738 25.621541 0 62.139246-26.952862 97.450473-53.016471 46.083571-34.020838 93.744058-69.199035 142.082996-69.199035 52.430116 0 92.00853 25.606191 117.489878 45.500287V357.617887c-0.001023-8.273431-5.336542-10.530844-12.649088-12.388145zM416.471296 521.66308c-34.603099 0-62.657039-28.389584-62.657038-60.886718s28.052916-60.887742 62.657038-60.887742c34.605146 0 62.658062 28.390607 62.658062 60.887742s-28.052916 60.886719-62.658062 60.886718z m94.074586-457.847659c-246.710938 0-446.708971 199.998033-446.708971 446.708971S263.834944 957.234387 510.545882 957.234387 957.255877 757.236354 957.255877 510.525416 757.25682 63.815421 510.545882 63.815421zM760.778017 681.033811c0 24.348548-21.019733 44.090171-46.949289 44.090171H307.149449c-25.928532 0-46.949288-19.741623-46.949289-44.090171V357.879853c0-24.348548 21.019733-44.088124 46.949289-44.088124h406.679279c25.928532 0 46.949288 19.739577 46.949289 44.088124V681.033811z" fill="#fa290a" p-id="27762"></path></svg>