<?xml version="1.0" standalone="no"?><!DOCTYPE svg PUBLIC "-//W3C//DTD SVG 1.1//EN" "http://www.w3.org/Graphics/SVG/1.1/DTD/svg11.dtd"><svg t="1561815988488" class="icon" viewBox="0 0 1024 1024" version="1.1" xmlns="http://www.w3.org/2000/svg" p-id="29227" width="64" height="64" xmlns:xlink="http://www.w3.org/1999/xlink"><defs><style type="text/css"></style></defs><path d="M522.166 29.793c-266.375 0-482.22 215.883-482.22 482.188s215.883 482.188 482.22 482.188c266.237 0 482.188-215.883 482.188-482.188s-215.916-482.188-482.188-482.188zM448.319 737.167c-37.027 33.718-93.82 31.754-126.817-4.444-32.997-36.301-29.724-92.992 7.299-126.782 37.058-33.718 93.82-31.754 126.851 4.478 32.997 36.198 29.724 92.959-7.338 126.747zM597.319 721.527c-7.511-61.442-32.927-120.925-77.392-169.697-46.909-51.49-107.596-82.972-171.867-94.753v-71.020c83.797 12.192 163.598 51.181 224.426 117.894 56.762 62.373 88.275 138.835 95.715 217.568h-70.882zM773.9 721.527c-7.232-104.532-47.358-206.789-122.613-289.38-81.662-89.583-190.157-140.042-303.229-152.374v-70.707c132.533 12.261 260.245 70.399 355.821 175.206 87.551 96.061 133.395 215.47 140.423 337.255h-70.399z" p-id="29228" fill="#0aa30a"></path></svg>