<?xml version="1.0" standalone="no"?><!DOCTYPE svg PUBLIC "-//W3C//DTD SVG 1.1//EN" "http://www.w3.org/Graphics/SVG/1.1/DTD/svg11.dtd"><svg t="1561817240479" class="icon" viewBox="0 0 1024 1024" version="1.1" xmlns="http://www.w3.org/2000/svg" p-id="35529" xmlns:xlink="http://www.w3.org/1999/xlink" width="64" height="64"><defs><style type="text/css"></style></defs><path d="M448 544a0.5 0.5 0 1 0 64 0 0.5 0.5 0 1 0-64 0zM576 544a0.5 0.5 0 1 0 64 0 0.5 0.5 0 1 0-64 0z" p-id="35530" fill="#1296db"></path><path d="M480 64C214.912 64 0 278.848 0 544s214.912 480 480 480c265.152 0 480-214.848 480-480S745.152 64 480 64z m224 544c0 64-33.984 96-96 96h-70.528l-134.784 89.6c-5.312 3.584-11.52 5.376-17.728 5.376a31.724 31.724 0 0 1-15.104-3.84c-10.368-5.568-16.896-16.384-16.896-28.16V704H352c-62.016 0-96-30.976-96-96V480c0-64 33.984-96 96-96h256c62.976 0 96 38.976 96 96v128z" p-id="35531" fill="#1296db"></path><path d="M320 544a0.5 0.5 0 1 0 64 0 0.5 0.5 0 1 0-64 0z" p-id="35532" fill="#1296db"></path></svg>