<?xml version="1.0" standalone="no"?><!DOCTYPE svg PUBLIC "-//W3C//DTD SVG 1.1//EN" "http://www.w3.org/Graphics/SVG/1.1/DTD/svg11.dtd"><svg t="1561814711193" class="icon" viewBox="0 0 1024 1024" version="1.1" xmlns="http://www.w3.org/2000/svg" p-id="14235" xmlns:xlink="http://www.w3.org/1999/xlink" width="64" height="64"><defs><style type="text/css"></style></defs><path d="M512 512m-512 0a512 512 0 1 0 1024 0 512 512 0 1 0-1024 0Z" fill="#FFFFFF" p-id="14236"></path><path d="M396.8 544c0 19.2 12.8 32 32 32s32-12.8 32-32c-6.4-19.2-19.2-32-38.4-32-12.8 0-25.6 12.8-25.6 32zM569.6 544c0 19.2 12.8 32 32 32s32-12.8 32-32c-6.4-19.2-19.2-32-32-32-19.2 0-32 12.8-32 32z" fill="#E6660F" p-id="14237"></path><path d="M512 0C230.4 0 0 230.4 0 512s230.4 512 512 512 512-230.4 512-512-230.4-512-512-512z m0 806.4c-121.6 0-217.6-96-217.6-217.6V499.2c0-121.6 96-217.6 217.6-217.6s217.6 96 217.6 217.6v89.6c0 51.2-19.2 96-44.8 134.4-12.8 6.4-25.6 12.8-38.4 12.8 0-6.4-6.4-12.8-12.8-12.8H550.4c12.8-12.8 19.2-25.6 19.2-44.8h-25.6c0 12.8-19.2 25.6-32 25.6s-32-12.8-32-32h-25.6c0 32 25.6 57.6 57.6 57.6h12.8v57.6c0 6.4 0 12.8 6.4 12.8-6.4 6.4-12.8 6.4-19.2 6.4z m320-204.8c0 19.2-12.8 32-32 32-12.8 83.2-89.6 147.2-172.8 147.2 0 6.4-6.4 12.8-12.8 12.8h-57.6c-6.4 0-12.8-6.4-12.8-12.8v-32c0-6.4 6.4-12.8 12.8-12.8h57.6c6.4 0 12.8 6.4 12.8 12.8 70.4 0 128-51.2 140.8-115.2-6.4 0-12.8-6.4-12.8-12.8V499.2c0-6.4 6.4-12.8 12.8-12.8-19.2-147.2-147.2-249.6-294.4-230.4-115.2 6.4-211.2 102.4-224 224 6.4 0 12.8 6.4 12.8 12.8v115.2c0 6.4-6.4 12.8-12.8 12.8h-32c-12.8 6.4-25.6-6.4-25.6-19.2V512c0-19.2 12.8-32 32-32 19.2-160 160-275.2 320-262.4 140.8 12.8 249.6 121.6 262.4 262.4 12.8 0 25.6 19.2 25.6 32v89.6z" fill="#FFFFFF" p-id="14238"></path><path d="M512 0C230.4 0 0 230.4 0 512s230.4 512 512 512 512-230.4 512-512-230.4-512-512-512z m0 806.4c-121.6 0-217.6-96-217.6-217.6V499.2c0-121.6 96-217.6 217.6-217.6s217.6 96 217.6 217.6v89.6c0 51.2-19.2 96-44.8 134.4-12.8 6.4-25.6 12.8-38.4 12.8 0-6.4-6.4-12.8-12.8-12.8H550.4c12.8-12.8 19.2-25.6 19.2-44.8h-25.6c0 12.8-19.2 25.6-32 25.6s-32-12.8-32-32h-25.6c0 32 25.6 57.6 57.6 57.6h12.8v57.6c0 6.4 0 12.8 6.4 12.8-6.4 6.4-12.8 6.4-19.2 6.4z m320-204.8c0 19.2-12.8 32-32 32-12.8 83.2-89.6 147.2-172.8 147.2 0 6.4-6.4 12.8-12.8 12.8h-57.6c-6.4 0-12.8-6.4-12.8-12.8v-32c0-6.4 6.4-12.8 12.8-12.8h57.6c6.4 0 12.8 6.4 12.8 12.8 70.4 0 128-51.2 140.8-115.2-6.4 0-12.8-6.4-12.8-12.8V499.2c0-6.4 6.4-12.8 12.8-12.8-19.2-147.2-147.2-249.6-294.4-230.4-115.2 6.4-211.2 102.4-224 224 6.4 0 12.8 6.4 12.8 12.8v115.2c0 6.4-6.4 12.8-12.8 12.8h-32c-12.8 6.4-25.6-6.4-25.6-19.2V512c0-19.2 12.8-32 32-32 19.2-160 160-275.2 320-262.4 140.8 12.8 249.6 121.6 262.4 262.4 12.8 0 25.6 19.2 25.6 32v89.6z" fill="#E6660F" p-id="14239"></path></svg>