<?xml version="1.0" standalone="no"?><!DOCTYPE svg PUBLIC "-//W3C//DTD SVG 1.1//EN" "http://www.w3.org/Graphics/SVG/1.1/DTD/svg11.dtd"><svg t="1561814781153" class="icon" viewBox="0 0 1024 1024" version="1.1" xmlns="http://www.w3.org/2000/svg" p-id="15012" xmlns:xlink="http://www.w3.org/1999/xlink" width="64" height="64"><defs><style type="text/css"></style></defs><path d="M925.952 340.608c-22.4-54.144-55.68-103.808-97.152-145.28-41.472-41.472-91.136-74.624-145.28-97.152C629.248 75.648 570.624 64 512 64s-117.248 11.648-171.392 34.048c-54.144 22.4-103.936 55.68-145.28 97.152-41.472 41.472-74.624 91.136-97.152 145.28C75.648 394.752 64 453.376 64 512s11.648 117.248 34.048 171.392c22.4 54.144 55.68 103.808 97.152 145.28s91.136 74.624 145.28 97.152c54.272 22.528 112.896 34.176 171.52 34.176s117.248-11.648 171.392-34.048c54.144-22.4 103.936-55.68 145.28-97.152 41.472-41.472 74.624-91.136 97.152-145.28 22.528-54.272 34.176-112.896 34.176-171.52S948.352 394.752 925.952 340.608zM653.056 555.648 672 555.648l0-11.392-18.944 0 0-11.264L672 532.992l0-11.52-18.944 0 0-11.392L672 510.08l0-11.392-18.816 0c0.512-15.744 13.952-28.416 30.592-28.416 16.896 0 30.592 13.184 30.592 29.312l0 87.168c0 16.256-13.696 29.312-30.592 29.312s-30.592-13.184-30.72-29.312L653.056 555.648zM760.064 586.624c0.128 35.456-26.112 64.896-61.056 71.68L699.008 674.56l15.232 0c8.448 0 15.232 6.528 15.232 14.592 0 8.064-6.912 14.592-15.232 14.592l-15.232 0-30.592 0L657.92 703.744c-4.608 5.376-11.904 9.088-22.272 9.088-18.304 0-343.808 0-343.808 0-35.456 0-39.552-51.584 1.28-51.584l141.952 0L435.072 631.04c-72.832-15.744-127.36-80.512-127.36-158.08 0-89.344 72.448-161.792 161.792-161.792s161.792 72.448 161.792 161.792c0 71.296-46.208 131.968-110.208 153.472l0 34.816 114.688 0c12.032 0 20.352 5.632 24.576 13.184l8.192 0 0-16.128c-34.944-6.784-61.312-36.352-61.312-71.68l0-14.592c0-8.064 6.912-14.592 15.232-14.592s15.232 6.528 15.232 14.592l0 14.592c0 24.32 20.608 43.904 45.824 43.904 25.344 0 45.824-19.584 45.824-43.904l0-14.592c0-8.064 6.912-14.592 15.232-14.592 8.576 0 15.232 6.528 15.232 14.848L759.808 586.624z" p-id="15013" fill="#d81e06"></path><path d="M469.632 456.32c-9.216 0-16.64 7.424-16.64 16.64s7.424 16.64 16.64 16.64 16.64-7.424 16.64-16.64S478.72 456.32 469.632 456.32z" p-id="15014" fill="#d81e06"></path><path d="M534.784 386.688c4.096 0 7.296-3.2 7.296-7.296 0-4.096-3.2-7.296-7.296-7.296s-7.296 3.2-7.296 7.296C527.488 383.488 530.816 386.688 534.784 386.688z" p-id="15015" fill="#d81e06"></path><path d="M469.632 409.216c-37.376 0-67.584 26.496-67.584 63.744 0 37.376 30.336 67.584 67.584 67.584 37.376 0 67.584-30.208 67.456-67.584C537.088 435.584 506.88 409.216 469.632 409.216zM469.632 500.864c-15.488 0-28.032-12.544-28.032-28.032s12.544-28.032 28.032-28.032 28.032 12.544 28.032 28.032S485.12 500.864 469.632 500.864z" p-id="15016" fill="#d81e06"></path></svg>